<svg width="118" height="66" viewBox="0 0 118 66" fill="none" xmlns="http://www.w3.org/2000/svg">
<path d="M107.273 0H10.7273C4.82727 0 0 4.95 0 11V55C0 61.05 4.82727 66 10.7273 66H107.273C113.173 66 118 61.05 118 55V11C118 4.95 113.173 0 107.273 0ZM48.2727 38.5H37.5455V49.5C37.5455 52.525 35.1318 55 32.1818 55C29.2318 55 26.8182 52.525 26.8182 49.5V38.5H16.0909C13.1409 38.5 10.7273 36.025 10.7273 33C10.7273 29.975 13.1409 27.5 16.0909 27.5H26.8182V16.5C26.8182 13.475 29.2318 11 32.1818 11C35.1318 11 37.5455 13.475 37.5455 16.5V27.5H48.2727C51.2227 27.5 53.6364 29.975 53.6364 33C53.6364 36.025 51.2227 38.5 48.2727 38.5ZM77.7727 49.5C73.3209 49.5 69.7273 45.815 69.7273 41.25C69.7273 36.685 73.3209 33 77.7727 33C82.2245 33 85.8182 36.685 85.8182 41.25C85.8182 45.815 82.2245 49.5 77.7727 49.5ZM99.2273 33C94.7755 33 91.1818 29.315 91.1818 24.75C91.1818 20.185 94.7755 16.5 99.2273 16.5C103.679 16.5 107.273 20.185 107.273 24.75C107.273 29.315 103.679 33 99.2273 33Z" fill="#704FE6"/>
</svg>
