<svg width="18" height="19" viewBox="0 0 18 19" fill="none" xmlns="http://www.w3.org/2000/svg">
<path d="M7.3456 0.429393L0.864188 5.29045C0.324071 5.70094 0 6.33828 0 7.01882V16.7409C0 17.9292 0.972211 18.9014 2.16047 18.9014H15.1233C16.3115 18.9014 17.2838 17.9292 17.2838 16.7409V7.01882C17.2838 6.33828 16.9597 5.70094 16.4196 5.29045L9.93816 0.429393C9.17119 -0.143131 8.11256 -0.143131 7.3456 0.429393ZM8.64188 15.1206C8.04775 15.1206 7.56164 14.6345 7.56164 14.0403H9.72211C9.72211 14.6345 9.23601 15.1206 8.64188 15.1206ZM12.4227 13.5002H4.86106C4.55859 13.5002 4.32094 13.2626 4.32094 12.9601C4.32094 12.6576 4.55859 12.42 4.86106 12.42H5.40117V9.89225C5.40117 8.22869 6.28697 6.84599 7.8317 6.47871V6.20865C7.8317 5.76575 8.19898 5.39847 8.64188 5.39847C9.08477 5.39847 9.45205 5.76575 9.45205 6.20865V6.47871C11.0076 6.84599 11.8826 8.22869 11.8826 9.89225V12.42H12.4227C12.7252 12.42 12.9628 12.6576 12.9628 12.9601C12.9628 13.2626 12.7252 13.5002 12.4227 13.5002Z" fill="#704FE3"/>
</svg>
