<svg width="90" height="97" viewBox="0 0 90 97" fill="none" xmlns="http://www.w3.org/2000/svg">
<path d="M15 97C10.75 97 7.1875 95.6056 4.3125 92.8169C1.4375 90.0281 0 86.5725 0 82.45V14.55C0 10.5083 1.4375 7.07292 4.3125 4.24375C7.1875 1.41458 10.75 0 15 0H60C62.75 0 65.1042 0.949792 67.0625 2.84938C69.0208 4.74896 70 7.0325 70 9.7V67.9C70 70.5675 69.0208 72.851 67.0625 74.7506C65.1042 76.6502 62.75 77.6 60 77.6H15C13.5833 77.6 12.3958 78.0648 11.4375 78.9944C10.4792 79.924 10 81.0758 10 82.45C10 83.8242 10.4792 84.976 11.4375 85.9056C12.3958 86.8352 13.5833 87.3 15 87.3H80V14.55C80 13.1758 80.4792 12.024 81.4375 11.0944C82.3958 10.1648 83.5833 9.7 85 9.7C86.4167 9.7 87.6042 10.1648 88.5625 11.0944C89.5208 12.024 90 13.1758 90 14.55V87.3C90 89.9675 89.0208 92.251 87.0625 94.1506C85.1042 96.0502 82.75 97 80 97H15ZM25 67.9C26.4167 67.9 27.6042 67.4352 28.5625 66.5056C29.5208 65.576 30 64.4242 30 63.05V14.55C30 13.1758 29.5208 12.024 28.5625 11.0944C27.6042 10.1648 26.4167 9.7 25 9.7C23.5833 9.7 22.3958 10.1648 21.4375 11.0944C20.4792 12.024 20 13.1758 20 14.55V63.05C20 64.4242 20.4792 65.576 21.4375 66.5056C22.3958 67.4352 23.5833 67.9 25 67.9Z" fill="#FC566F"/>
</svg>
