<svg width="127" height="74" viewBox="0 0 127 74" fill="none" xmlns="http://www.w3.org/2000/svg">
<path d="M95.7896 24.0363L106.407 5.40614C107.33 3.58999 106.638 1.36374 104.907 0.426366C103.233 -0.452417 101.156 0.0748547 100.117 1.71525L89.269 20.697C72.7654 13.6081 54.1846 13.6081 37.6811 20.697L26.8326 1.71525C25.7362 0.0162693 23.4858 -0.511002 21.8123 0.543537C20.1966 1.59808 19.6773 3.70716 20.5428 5.40614L31.1605 24.0363C13.2721 34.406 1.61573 53.0948 0 73.9512H126.95C125.334 53.0948 113.678 34.406 95.7896 24.0363ZM34.6227 57.8402C30.6411 57.8402 27.4097 54.5594 27.4097 50.517C27.4097 46.4746 30.6411 43.1938 34.6227 43.1938C38.6044 43.1938 41.8358 46.4746 41.8358 50.517C41.8358 54.5594 38.6044 57.8402 34.6227 57.8402ZM92.3273 57.8402C88.3457 57.8402 85.1142 54.5594 85.1142 50.517C85.1142 46.4746 88.3457 43.1938 92.3273 43.1938C96.3089 43.1938 99.5404 46.4746 99.5404 50.517C99.5404 54.5594 96.3089 57.8402 92.3273 57.8402Z" fill="#FEE7BC"/>
</svg>
